<mxfile host="app.diagrams.net" agent="Mozilla/5.0 (Macintosh; Intel Mac OS X 10_15_7) AppleWebKit/537.36 (KHTML, like Gecko) Chrome/131.0.0.0 Safari/537.36" version="26.0.15">
  <diagram name="第 1 页" id="gctCLe9nXSVKJlzK6bDj">
    <mxGraphModel dx="1242" dy="785" grid="1" gridSize="10" guides="1" tooltips="1" connect="1" arrows="1" fold="1" page="1" pageScale="1" pageWidth="827" pageHeight="1169" math="0" shadow="0">
      <root>
        <mxCell id="0" />
        <mxCell id="1" parent="0" />
        <mxCell id="zd11rC6VpMuPoMnVmV5P-4" value="" style="edgeStyle=orthogonalEdgeStyle;rounded=0;orthogonalLoop=1;jettySize=auto;html=1;" edge="1" parent="1" source="zd11rC6VpMuPoMnVmV5P-2" target="zd11rC6VpMuPoMnVmV5P-3">
          <mxGeometry relative="1" as="geometry" />
        </mxCell>
        <mxCell id="zd11rC6VpMuPoMnVmV5P-2" value="&lt;font style=&quot;font-size: 16px;&quot;&gt;matmul: [m, n]&lt;/font&gt;&lt;div&gt;&lt;font style=&quot;font-size: 16px;&quot;&gt;reshape: [b0, b1, n]&lt;/font&gt;&lt;/div&gt;" style="ellipse;whiteSpace=wrap;html=1;" vertex="1" parent="1">
          <mxGeometry x="120" y="230" width="206" height="80" as="geometry" />
        </mxCell>
        <mxCell id="zd11rC6VpMuPoMnVmV5P-3" value="&lt;div&gt;&lt;font style=&quot;font-size: 16px;&quot;&gt;layernorm: [b0, b1, n]&lt;/font&gt;&lt;/div&gt;&lt;div&gt;&lt;font style=&quot;font-size: 16px;&quot;&gt;swish: [b0, b1, n]&lt;/font&gt;&lt;/div&gt;" style="ellipse;whiteSpace=wrap;html=1;" vertex="1" parent="1">
          <mxGeometry x="120" y="350" width="206" height="80" as="geometry" />
        </mxCell>
        <mxCell id="zd11rC6VpMuPoMnVmV5P-5" value="" style="edgeStyle=orthogonalEdgeStyle;rounded=0;orthogonalLoop=1;jettySize=auto;html=1;" edge="1" parent="1" source="zd11rC6VpMuPoMnVmV5P-6" target="zd11rC6VpMuPoMnVmV5P-7">
          <mxGeometry relative="1" as="geometry" />
        </mxCell>
        <mxCell id="zd11rC6VpMuPoMnVmV5P-6" value="&lt;font style=&quot;font-size: 16px;&quot;&gt;matmul: [m, n]&lt;/font&gt;" style="ellipse;whiteSpace=wrap;html=1;" vertex="1" parent="1">
          <mxGeometry x="410" y="240" width="206" height="60" as="geometry" />
        </mxCell>
        <mxCell id="zd11rC6VpMuPoMnVmV5P-7" value="&lt;div&gt;&lt;span style=&quot;font-size: 16px; background-color: transparent; color: light-dark(rgb(0, 0, 0), rgb(255, 255, 255));&quot;&gt;layernorm: [m, n]&lt;/span&gt;&lt;/div&gt;&lt;div&gt;&lt;font style=&quot;font-size: 16px;&quot;&gt;swish: [m, n]&lt;/font&gt;&lt;/div&gt;&lt;div&gt;&lt;span style=&quot;font-size: 16px;&quot;&gt;reshape: [b0, b1, n]&lt;/span&gt;&lt;/div&gt;" style="ellipse;whiteSpace=wrap;html=1;" vertex="1" parent="1">
          <mxGeometry x="410" y="330" width="206" height="100" as="geometry" />
        </mxCell>
        <mxCell id="zd11rC6VpMuPoMnVmV5P-8" value="&lt;span style=&quot;color: rgb(0, 0, 0); font-family: Helvetica; font-size: 16px; font-style: normal; font-variant-ligatures: normal; font-variant-caps: normal; font-weight: 400; letter-spacing: normal; orphans: 2; text-align: center; text-indent: 0px; text-transform: none; widows: 2; word-spacing: 0px; -webkit-text-stroke-width: 0px; white-space: normal; background-color: rgb(251, 251, 251); text-decoration-thickness: initial; text-decoration-style: initial; text-decoration-color: initial; float: none; display: inline !important;&quot;&gt;m = b0*b1&lt;/span&gt;" style="text;whiteSpace=wrap;html=1;" vertex="1" parent="1">
          <mxGeometry x="246" y="200" width="80" height="40" as="geometry" />
        </mxCell>
        <mxCell id="zd11rC6VpMuPoMnVmV5P-10" value="" style="shape=flexArrow;endArrow=classic;html=1;rounded=0;" edge="1" parent="1">
          <mxGeometry width="50" height="50" relative="1" as="geometry">
            <mxPoint x="330" y="320" as="sourcePoint" />
            <mxPoint x="400" y="320" as="targetPoint" />
          </mxGeometry>
        </mxCell>
      </root>
    </mxGraphModel>
  </diagram>
</mxfile>
